# xmcd
#
# Track frame offsets: 
#        150
#        18687
#        36770
#        51252
#        67550
#        84565
#        100677
#        115810
#        134937
#        150932
#        168180
#        182065
#
# Disc length: 2486 seconds
#
# Revision: 0
# Processed by: cddbd v1.5.1PL0 Copyright (c) Steve Scherf et al.
# Submitted via: ExactAudioCopy v0.95a5
#
DISCID=9309b40c
DTITLE=Kentucky Riders - Kentucky Riders
DYEAR=1996
DGENRE=Country
TTITLE0=Moonshine Lady
TTITLE1=Could Have Been Me
TTITLE2=Please Don't Fall
TTITLE3=Changes
TTITLE4=Headaches By The #
TTITLE5=Poor Lonesome Cowboy
TTITLE6=Once Bitten
TTITLE7=Call of The Wind
TTITLE8=Hard Time
TTITLE9=Pickup Truck
TTITLE10=Thousand Roses
TTITLE11=Bonus Track (To Be Continued)
EXTD=
EXTT0=
EXTT1=
EXTT2=
EXTT3=
EXTT4=
EXTT5=
EXTT6=
EXTT7=
EXTT8=
EXTT9=
EXTT10=
EXTT11=
PLAYORDER=
